<?xml version="1.0" encoding="UTF-8" standalone="no"?>
<!DOCTYPE svg PUBLIC "-//W3C//DTD SVG 1.1//EN" "http://www.w3.org/Graphics/SVG/1.1/DTD/svg11.dtd">
<svg xmlns="http://www.w3.org/2000/svg" version="1.1" viewBox="0.00 0.00 817.00 168.00">
<g stroke-width="2.00" fill="none" stroke-linecap="butt">
<path stroke="#9ad4a9" d="
  M 729.55 3.54
  A 0.61 0.61 0.0 0 0 728.94 2.93
  L 712.36 2.93
  A 0.61 0.61 0.0 0 0 711.75 3.54
  L 711.75 120.40
  A 0.61 0.61 0.0 0 0 712.36 121.01
  L 728.94 121.01
  A 0.61 0.61 0.0 0 0 729.55 120.40
  L 729.55 3.54"
/>
<path stroke="#90a2c1" d="
  M 401.77 54.48
  Q 401.89 80.19 401.74 99.52
  C 401.69 106.14 399.59 108.85 393.53 110.89
  A 1.27 1.25 -86.4 0 0 392.80 111.54
  C 387.13 123.13 420.62 119.73 424.72 119.19
  C 428.82 118.65 434.39 116.51 431.89 111.37
  A 1.01 0.98 79.1 0 0 431.09 110.81
  Q 430.42 110.74 426.68 109.81
  C 420.32 108.22 420.00 102.10 419.98 96.75
  Q 419.94 88.30 419.93 54.73
  A 0.41 0.40 0.7 0 1 420.35 54.33
  Q 424.20 54.50 431.31 54.56
  C 437.64 54.62 440.85 51.78 440.09 45.33
  A 1.97 1.96 86.5 0 0 438.14 43.60
  L 420.05 43.60
  A 0.44 0.44 0.0 0 1 419.61 43.17
  Q 419.48 36.21 419.57 28.78
  C 419.66 21.45 422.13 14.81 430.53 14.62
  Q 434.75 14.53 438.53 16.59
  A 0.91 0.91 0.0 0 1 438.93 17.76
  Q 438.05 19.73 437.73 21.19
  C 436.04 28.83 444.60 35.11 451.41 31.19
  C 457.35 27.78 457.67 20.17 454.08 15.09
  C 447.81 6.21 433.81 4.15 423.75 5.74
  C 403.88 8.88 400.99 26.10 401.61 43.11
  A 0.79 0.78 89.6 0 1 400.81 43.93
  C 398.56 43.88 394.24 43.44 392.19 44.65
  C 389.21 46.41 388.68 50.33 390.08 53.35
  A 0.73 0.72 76.8 0 0 390.73 53.76
  L 401.05 53.76
  A 0.72 0.72 0.0 0 1 401.77 54.48"
/>
<path stroke="#90a2c1" d="
  M 4.78 66.16
  C 4.90 82.00 9.94 96.93 21.35 108.03
  C 36.04 122.31 58.55 126.47 76.98 116.78
  C 86.34 111.85 94.96 103.02 95.61 92.29
  C 96.08 84.46 91.24 77.12 82.73 78.63
  C 74.75 80.05 70.75 89.14 75.45 95.87
  Q 76.45 97.30 77.18 98.30
  A 1.78 1.77 -46.4 0 1 77.22 100.32
  C 73.32 106.19 67.65 109.36 60.53 110.17
  Q 47.44 111.66 38.39 101.05
  C 30.31 91.58 27.46 77.91 27.37 66.00
  C 27.29 54.09 29.93 40.37 37.87 30.79
  Q 46.77 20.04 59.88 21.34
  C 67.01 22.05 72.73 25.13 76.71 30.95
  A 1.78 1.77 45.5 0 1 76.70 32.97
  Q 75.99 33.98 75.01 35.42
  C 70.41 42.22 74.54 51.25 82.54 52.55
  C 91.07 53.94 95.80 46.53 95.22 38.71
  C 94.41 27.99 85.66 19.28 76.23 14.49
  C 57.66 5.07 35.22 9.56 20.74 24.06
  C 9.49 35.32 4.67 50.32 4.78 66.16"
/>
<path stroke="#90a2c1" d="
  M 154.57 76.05
  Q 143.68 72.11 132.27 73.54
  C 118.58 75.25 106.86 82.57 107.22 97.76
  C 107.58 112.78 120.88 121.71 134.96 121.36
  Q 146.88 121.07 156.70 112.41
  A 0.43 0.42 -31.5 0 1 157.38 112.57
  C 160.41 120.36 169.15 122.79 176.72 120.19
  Q 182.80 118.10 183.47 111.55
  A 0.66 0.65 -81.5 0 0 182.94 110.83
  C 175.27 109.32 172.61 107.93 172.64 99.40
  Q 172.76 68.45 172.61 65.45
  Q 172.27 58.51 170.87 54.62
  C 165.67 40.13 141.58 40.39 129.89 43.14
  C 122.43 44.90 112.45 50.12 113.09 59.35
  C 113.55 66.11 120.69 70.28 126.72 67.08
  C 131.20 64.69 132.55 59.38 131.20 54.50
  A 0.78 0.77 74.3 0 1 131.73 53.54
  C 142.68 50.43 154.02 50.88 155.07 65.14
  Q 155.44 70.10 155.16 75.65
  A 0.45 0.44 -78.5 0 1 154.57 76.05"
/>
<path stroke="#90a2c1" d="
  M 216.67 53.36
  C 214.23 39.48 201.49 40.76 192.78 47.23
  Q 188.40 50.48 189.26 55.96
  A 1.27 1.27 0.0 0 0 190.75 57.01
  C 197.91 55.67 200.37 58.61 200.39 65.50
  Q 200.43 84.48 200.36 97.98
  C 200.32 105.77 199.06 108.19 192.12 110.91
  A 1.52 1.49 2.4 0 0 191.31 111.64
  Q 190.50 113.27 191.01 115.18
  C 192.85 122.04 217.90 119.86 222.69 119.16
  C 226.80 118.57 230.42 116.01 228.13 111.49
  A 1.18 1.18 0.0 0 0 227.46 110.92
  C 222.18 109.24 218.15 108.74 217.59 101.96
  Q 217.11 96.17 217.47 74.01
  C 217.58 66.90 219.85 58.83 226.64 55.10
  A 0.71 0.71 0.0 0 1 227.68 55.56
  C 229.29 62.44 237.13 65.56 242.73 61.15
  C 248.45 56.62 248.01 46.97 241.42 43.25
  C 232.22 38.04 221.76 45.45 217.34 53.48
  A 0.36 0.36 0.0 0 1 216.67 53.36"
/>
<path stroke="#90a2c1" d="
  M 279.98 53.36
  C 277.54 39.47 264.79 40.75 256.08 47.22
  Q 251.70 50.47 252.56 55.95
  A 1.27 1.27 0.0 0 0 254.05 57.00
  C 261.21 55.66 263.67 58.60 263.69 65.50
  Q 263.72 84.48 263.65 97.99
  C 263.61 105.78 262.35 108.20 255.40 110.92
  A 1.52 1.49 2.5 0 0 254.59 111.65
  Q 253.78 113.28 254.29 115.19
  C 256.13 122.05 281.19 119.88 285.98 119.18
  C 290.09 118.59 293.71 116.03 291.42 111.51
  A 1.18 1.18 0.0 0 0 290.75 110.94
  C 285.47 109.26 281.44 108.75 280.88 101.97
  Q 280.40 96.18 280.77 74.01
  C 280.88 66.90 283.16 58.83 289.95 55.10
  A 0.72 0.71 68.7 0 1 290.99 55.56
  C 292.60 62.44 300.44 65.57 306.04 61.16
  C 311.76 56.63 311.33 46.97 304.74 43.25
  C 295.53 38.04 285.07 45.45 280.65 53.48
  A 0.36 0.36 0.0 0 1 279.98 53.36"
/>
<path stroke="#90a2c1" d="
  M 377.06 98.59
  Q 365.74 108.82 352.02 106.25
  C 339.41 103.89 332.26 94.66 331.48 82.33
  A 0.96 0.96 0.0 0 1 332.44 81.31
  L 379.54 81.31
  A 0.98 0.97 12.2 0 0 380.43 80.74
  C 382.91 75.45 383.26 68.46 381.51 62.81
  C 374.86 41.25 351.27 37.15 332.80 46.08
  C 319.13 52.69 312.32 68.07 312.44 82.50
  Q 312.60 102.56 328.17 114.10
  Q 336.40 120.20 346.92 121.08
  C 357.92 122.00 371.59 119.65 378.13 110.16
  Q 381.45 105.35 379.25 99.15
  A 1.36 1.36 0.0 0 0 377.06 98.59"
/>
<path stroke="#f4a29b" d="
  M 528.51 83.25
  A 40.40 40.40 0.0 0 0 488.11 42.85
  A 40.40 40.40 0.0 0 0 447.71 83.25
  A 40.40 40.40 0.0 0 0 488.11 123.65
  A 40.40 40.40 0.0 0 0 528.51 83.25"
/>
<path stroke="#f4a29b" d="
  M 796.16 96.80
  Q 787.93 108.60 773.98 107.29
  C 766.62 106.60 760.98 102.44 757.76 96.18
  A 0.81 0.80 -25.1 0 1 758.17 95.06
  L 810.41 73.48
  A 0.61 0.60 -20.9 0 0 810.75 72.73
  C 807.78 63.94 803.17 56.11 795.93 50.36
  C 788.46 44.43 778.85 42.07 769.72 43.41
  C 748.77 46.48 736.60 64.31 737.25 84.77
  C 738.08 110.62 760.65 127.92 785.75 122.41
  Q 800.28 119.23 810.08 105.94
  A 0.38 0.37 35.1 0 0 809.98 105.41
  L 796.82 96.67
  A 0.49 0.49 0.0 0 0 796.16 96.80"
/>
<path stroke="#fde082" d="
  M 616.10 83.23
  A 40.39 40.39 0.0 0 0 575.71 42.84
  A 40.39 40.39 0.0 0 0 535.32 83.23
  A 40.39 40.39 0.0 0 0 575.71 123.62
  A 40.39 40.39 0.0 0 0 616.10 83.23"
/>
<path stroke="#a1c3f8" d="
  M 683.23 114.62
  Q 683.72 119.29 682.94 124.99
  Q 681.04 138.89 669.40 142.47
  C 657.77 146.05 647.20 140.90 641.99 129.95
  A 0.76 0.75 66.1 0 0 641.02 129.57
  L 626.70 135.49
  A 0.46 0.46 0.0 0 0 626.45 136.11
  C 632.92 150.24 645.55 159.09 661.01 159.37
  C 686.27 159.83 699.96 142.78 700.04 118.50
  Q 700.08 103.33 700.02 46.36
  A 0.69 0.69 0.0 0 0 699.33 45.67
  L 684.04 45.67
  A 0.77 0.76 90.0 0 0 683.28 46.44
  L 683.28 51.54
  A 0.41 0.41 0.0 0 1 682.57 51.82
  Q 676.41 45.28 667.30 43.71
  C 644.22 39.73 624.11 59.52 623.12 81.48
  Q 622.50 95.32 630.72 107.00
  C 641.92 122.92 668.12 130.69 682.59 114.42
  A 0.37 0.37 0.0 0 1 683.23 114.62"
/>
<path stroke="#90a2c1" d="
  M 155.20 100.22
  Q 155.38 92.15 155.09 90.03
  C 154.41 84.99 148.37 83.17 143.75 82.81
  C 137.23 82.30 130.14 84.19 127.68 90.92
  C 125.03 98.19 128.68 106.82 136.58 108.47
  Q 146.82 110.60 154.39 102.23
  A 3.10 3.08 67.2 0 0 155.20 100.22"
/>
<path stroke="#90a2c1" d="
  M 332.32 71.56
  L 361.66 71.56
  A 2.25 2.25 0.0 0 0 363.77 70.10
  Q 364.58 67.94 364.24 65.98
  Q 362.13 53.86 350.93 52.09
  C 339.04 50.21 332.38 60.29 331.65 70.84
  A 0.67 0.67 0.0 0 0 332.32 71.56"
/>
<path stroke="#f4a29b" d="
  M 488.1400 58.9600
  A 24.28 22.67 -90.0 0 0 465.4700 83.2400
  A 24.28 22.67 -90.0 0 0 488.1400 107.5200
  A 24.28 22.67 -90.0 0 0 510.8100 83.2400
  A 24.28 22.67 -90.0 0 0 488.1400 58.9600"
/>
<path stroke="#f4a29b" d="
  M 789.80 66.18
  C 785.33 59.02 775.73 56.96 768.13 60.26
  Q 754.85 66.02 754.33 81.11
  A 0.55 0.55 0.0 0 0 755.09 81.64
  L 789.38 67.48
  A 0.90 0.90 0.0 0 0 789.80 66.18"
/>
<path stroke="#fde082" d="
  M 575.7100 58.9500
  A 24.29 22.68 -90.0 0 0 553.0300 83.2400
  A 24.29 22.68 -90.0 0 0 575.7100 107.5300
  A 24.29 22.68 -90.0 0 0 598.3900 83.2400
  A 24.29 22.68 -90.0 0 0 575.7100 58.9500"
/>
<path stroke="#a1c3f8" d="
  M 662.7600 58.9300
  A 24.36 21.95 -90.0 0 0 640.8100 83.2900
  A 24.36 21.95 -90.0 0 0 662.7600 107.6500
  A 24.36 21.95 -90.0 0 0 684.7100 83.2900
  A 24.36 21.95 -90.0 0 0 662.7600 58.9300"
/>
</g>
<path fill="#ffffff" d="
  M 817.00 0.00
  L 817.00 168.00
  L 0.00 168.00
  L 0.00 0.00
  L 817.00 0.00
  Z
  M 729.55 3.54
  A 0.61 0.61 0.0 0 0 728.94 2.93
  L 712.36 2.93
  A 0.61 0.61 0.0 0 0 711.75 3.54
  L 711.75 120.40
  A 0.61 0.61 0.0 0 0 712.36 121.01
  L 728.94 121.01
  A 0.61 0.61 0.0 0 0 729.55 120.40
  L 729.55 3.54
  Z
  M 401.77 54.48
  Q 401.89 80.19 401.74 99.52
  C 401.69 106.14 399.59 108.85 393.53 110.89
  A 1.27 1.25 -86.4 0 0 392.80 111.54
  C 387.13 123.13 420.62 119.73 424.72 119.19
  C 428.82 118.65 434.39 116.51 431.89 111.37
  A 1.01 0.98 79.1 0 0 431.09 110.81
  Q 430.42 110.74 426.68 109.81
  C 420.32 108.22 420.00 102.10 419.98 96.75
  Q 419.94 88.30 419.93 54.73
  A 0.41 0.40 0.7 0 1 420.35 54.33
  Q 424.20 54.50 431.31 54.56
  C 437.64 54.62 440.85 51.78 440.09 45.33
  A 1.97 1.96 86.5 0 0 438.14 43.60
  L 420.05 43.60
  A 0.44 0.44 0.0 0 1 419.61 43.17
  Q 419.48 36.21 419.57 28.78
  C 419.66 21.45 422.13 14.81 430.53 14.62
  Q 434.75 14.53 438.53 16.59
  A 0.91 0.91 0.0 0 1 438.93 17.76
  Q 438.05 19.73 437.73 21.19
  C 436.04 28.83 444.60 35.11 451.41 31.19
  C 457.35 27.78 457.67 20.17 454.08 15.09
  C 447.81 6.21 433.81 4.15 423.75 5.74
  C 403.88 8.88 400.99 26.10 401.61 43.11
  A 0.79 0.78 89.6 0 1 400.81 43.93
  C 398.56 43.88 394.24 43.44 392.19 44.65
  C 389.21 46.41 388.68 50.33 390.08 53.35
  A 0.73 0.72 76.8 0 0 390.73 53.76
  L 401.05 53.76
  A 0.72 0.72 0.0 0 1 401.77 54.48
  Z
  M 4.78 66.16
  C 4.90 82.00 9.94 96.93 21.35 108.03
  C 36.04 122.31 58.55 126.47 76.98 116.78
  C 86.34 111.85 94.96 103.02 95.61 92.29
  C 96.08 84.46 91.24 77.12 82.73 78.63
  C 74.75 80.05 70.75 89.14 75.45 95.87
  Q 76.45 97.30 77.18 98.30
  A 1.78 1.77 -46.4 0 1 77.22 100.32
  C 73.32 106.19 67.65 109.36 60.53 110.17
  Q 47.44 111.66 38.39 101.05
  C 30.31 91.58 27.46 77.91 27.37 66.00
  C 27.29 54.09 29.93 40.37 37.87 30.79
  Q 46.77 20.04 59.88 21.34
  C 67.01 22.05 72.73 25.13 76.71 30.95
  A 1.78 1.77 45.5 0 1 76.70 32.97
  Q 75.99 33.98 75.01 35.42
  C 70.41 42.22 74.54 51.25 82.54 52.55
  C 91.07 53.94 95.80 46.53 95.22 38.71
  C 94.41 27.99 85.66 19.28 76.23 14.49
  C 57.66 5.07 35.22 9.56 20.74 24.06
  C 9.49 35.32 4.67 50.32 4.78 66.16
  Z
  M 154.57 76.05
  Q 143.68 72.11 132.27 73.54
  C 118.58 75.25 106.86 82.57 107.22 97.76
  C 107.58 112.78 120.88 121.71 134.96 121.36
  Q 146.88 121.07 156.70 112.41
  A 0.43 0.42 -31.5 0 1 157.38 112.57
  C 160.41 120.36 169.15 122.79 176.72 120.19
  Q 182.80 118.10 183.47 111.55
  A 0.66 0.65 -81.5 0 0 182.94 110.83
  C 175.27 109.32 172.61 107.93 172.64 99.40
  Q 172.76 68.45 172.61 65.45
  Q 172.27 58.51 170.87 54.62
  C 165.67 40.13 141.58 40.39 129.89 43.14
  C 122.43 44.90 112.45 50.12 113.09 59.35
  C 113.55 66.11 120.69 70.28 126.72 67.08
  C 131.20 64.69 132.55 59.38 131.20 54.50
  A 0.78 0.77 74.3 0 1 131.73 53.54
  C 142.68 50.43 154.02 50.88 155.07 65.14
  Q 155.44 70.10 155.16 75.65
  A 0.45 0.44 -78.5 0 1 154.57 76.05
  Z
  M 216.67 53.36
  C 214.23 39.48 201.49 40.76 192.78 47.23
  Q 188.40 50.48 189.26 55.96
  A 1.27 1.27 0.0 0 0 190.75 57.01
  C 197.91 55.67 200.37 58.61 200.39 65.50
  Q 200.43 84.48 200.36 97.98
  C 200.32 105.77 199.06 108.19 192.12 110.91
  A 1.52 1.49 2.4 0 0 191.31 111.64
  Q 190.50 113.27 191.01 115.18
  C 192.85 122.04 217.90 119.86 222.69 119.16
  C 226.80 118.57 230.42 116.01 228.13 111.49
  A 1.18 1.18 0.0 0 0 227.46 110.92
  C 222.18 109.24 218.15 108.74 217.59 101.96
  Q 217.11 96.17 217.47 74.01
  C 217.58 66.90 219.85 58.83 226.64 55.10
  A 0.71 0.71 0.0 0 1 227.68 55.56
  C 229.29 62.44 237.13 65.56 242.73 61.15
  C 248.45 56.62 248.01 46.97 241.42 43.25
  C 232.22 38.04 221.76 45.45 217.34 53.48
  A 0.36 0.36 0.0 0 1 216.67 53.36
  Z
  M 279.98 53.36
  C 277.54 39.47 264.79 40.75 256.08 47.22
  Q 251.70 50.47 252.56 55.95
  A 1.27 1.27 0.0 0 0 254.05 57.00
  C 261.21 55.66 263.67 58.60 263.69 65.50
  Q 263.72 84.48 263.65 97.99
  C 263.61 105.78 262.35 108.20 255.40 110.92
  A 1.52 1.49 2.5 0 0 254.59 111.65
  Q 253.78 113.28 254.29 115.19
  C 256.13 122.05 281.19 119.88 285.98 119.18
  C 290.09 118.59 293.71 116.03 291.42 111.51
  A 1.18 1.18 0.0 0 0 290.75 110.94
  C 285.47 109.26 281.44 108.75 280.88 101.97
  Q 280.40 96.18 280.77 74.01
  C 280.88 66.90 283.16 58.83 289.95 55.10
  A 0.72 0.71 68.7 0 1 290.99 55.56
  C 292.60 62.44 300.44 65.57 306.04 61.16
  C 311.76 56.63 311.33 46.97 304.74 43.25
  C 295.53 38.04 285.07 45.45 280.65 53.48
  A 0.36 0.36 0.0 0 1 279.98 53.36
  Z
  M 377.06 98.59
  Q 365.74 108.82 352.02 106.25
  C 339.41 103.89 332.26 94.66 331.48 82.33
  A 0.96 0.96 0.0 0 1 332.44 81.31
  L 379.54 81.31
  A 0.98 0.97 12.2 0 0 380.43 80.74
  C 382.91 75.45 383.26 68.46 381.51 62.81
  C 374.86 41.25 351.27 37.15 332.80 46.08
  C 319.13 52.69 312.32 68.07 312.44 82.50
  Q 312.60 102.56 328.17 114.10
  Q 336.40 120.20 346.92 121.08
  C 357.92 122.00 371.59 119.65 378.13 110.16
  Q 381.45 105.35 379.25 99.15
  A 1.36 1.36 0.0 0 0 377.06 98.59
  Z
  M 528.51 83.25
  A 40.40 40.40 0.0 0 0 488.11 42.85
  A 40.40 40.40 0.0 0 0 447.71 83.25
  A 40.40 40.40 0.0 0 0 488.11 123.65
  A 40.40 40.40 0.0 0 0 528.51 83.25
  Z
  M 796.16 96.80
  Q 787.93 108.60 773.98 107.29
  C 766.62 106.60 760.98 102.44 757.76 96.18
  A 0.81 0.80 -25.1 0 1 758.17 95.06
  L 810.41 73.48
  A 0.61 0.60 -20.9 0 0 810.75 72.73
  C 807.78 63.94 803.17 56.11 795.93 50.36
  C 788.46 44.43 778.85 42.07 769.72 43.41
  C 748.77 46.48 736.60 64.31 737.25 84.77
  C 738.08 110.62 760.65 127.92 785.75 122.41
  Q 800.28 119.23 810.08 105.94
  A 0.38 0.37 35.1 0 0 809.98 105.41
  L 796.82 96.67
  A 0.49 0.49 0.0 0 0 796.16 96.80
  Z
  M 616.10 83.23
  A 40.39 40.39 0.0 0 0 575.71 42.84
  A 40.39 40.39 0.0 0 0 535.32 83.23
  A 40.39 40.39 0.0 0 0 575.71 123.62
  A 40.39 40.39 0.0 0 0 616.10 83.23
  Z
  M 683.23 114.62
  Q 683.72 119.29 682.94 124.99
  Q 681.04 138.89 669.40 142.47
  C 657.77 146.05 647.20 140.90 641.99 129.95
  A 0.76 0.75 66.1 0 0 641.02 129.57
  L 626.70 135.49
  A 0.46 0.46 0.0 0 0 626.45 136.11
  C 632.92 150.24 645.55 159.09 661.01 159.37
  C 686.27 159.83 699.96 142.78 700.04 118.50
  Q 700.08 103.33 700.02 46.36
  A 0.69 0.69 0.0 0 0 699.33 45.67
  L 684.04 45.67
  A 0.77 0.76 90.0 0 0 683.28 46.44
  L 683.28 51.54
  A 0.41 0.41 0.0 0 1 682.57 51.82
  Q 676.41 45.28 667.30 43.71
  C 644.22 39.73 624.11 59.52 623.12 81.48
  Q 622.50 95.32 630.72 107.00
  C 641.92 122.92 668.12 130.69 682.59 114.42
  A 0.37 0.37 0.0 0 1 683.23 114.62
  Z"
/>
<rect fill="#34A853" x="711.75" y="2.93" width="17.80" height="118.08" rx="0.61"/>
<path fill="#204482" d="
  M 401.05 53.76
  L 390.73 53.76
  A 0.73 0.72 76.8 0 1 390.08 53.35
  C 388.68 50.33 389.21 46.41 392.19 44.65
  C 394.24 43.44 398.56 43.88 400.81 43.93
  A 0.79 0.78 89.6 0 0 401.61 43.11
  C 400.99 26.10 403.88 8.88 423.75 5.74
  C 433.81 4.15 447.81 6.21 454.08 15.09
  C 457.67 20.17 457.35 27.78 451.41 31.19
  C 444.60 35.11 436.04 28.83 437.73 21.19
  Q 438.05 19.73 438.93 17.76
  A 0.91 0.91 0.0 0 0 438.53 16.59
  Q 434.75 14.53 430.53 14.62
  C 422.13 14.81 419.66 21.45 419.57 28.78
  Q 419.48 36.21 419.61 43.17
  A 0.44 0.44 0.0 0 0 420.05 43.60
  L 438.14 43.60
  A 1.97 1.96 86.5 0 1 440.09 45.33
  C 440.85 51.78 437.64 54.62 431.31 54.56
  Q 424.20 54.50 420.35 54.33
  A 0.41 0.40 0.7 0 0 419.93 54.73
  Q 419.94 88.30 419.98 96.75
  C 420.00 102.10 420.32 108.22 426.68 109.81
  Q 430.42 110.74 431.09 110.81
  A 1.01 0.98 79.1 0 1 431.89 111.37
  C 434.39 116.51 428.82 118.65 424.72 119.19
  C 420.62 119.73 387.13 123.13 392.80 111.54
  A 1.27 1.25 -86.4 0 1 393.53 110.89
  C 399.59 108.85 401.69 106.14 401.74 99.52
  Q 401.89 80.19 401.77 54.48
  A 0.72 0.72 0.0 0 0 401.05 53.76
  Z"
/>
<path fill="#204482" d="
  M 27.37 66.00
  C 27.46 77.91 30.31 91.58 38.39 101.05
  Q 47.44 111.66 60.53 110.17
  C 67.65 109.36 73.32 106.19 77.22 100.32
  A 1.78 1.77 -46.4 0 0 77.18 98.30
  Q 76.45 97.30 75.45 95.87
  C 70.75 89.14 74.75 80.05 82.73 78.63
  C 91.24 77.12 96.08 84.46 95.61 92.29
  C 94.96 103.02 86.34 111.85 76.98 116.78
  C 58.55 126.47 36.04 122.31 21.35 108.03
  C 9.94 96.93 4.90 82.00 4.78 66.16
  C 4.67 50.32 9.49 35.32 20.74 24.06
  C 35.22 9.56 57.66 5.07 76.23 14.49
  C 85.66 19.28 94.41 27.99 95.22 38.71
  C 95.80 46.53 91.07 53.94 82.54 52.55
  C 74.54 51.25 70.41 42.22 75.01 35.42
  Q 75.99 33.98 76.70 32.97
  A 1.78 1.77 45.5 0 0 76.71 30.95
  C 72.73 25.13 67.01 22.05 59.88 21.34
  Q 46.77 20.04 37.87 30.79
  C 29.93 40.37 27.29 54.09 27.37 66.00
  Z"
/>
<path fill="#204482" d="
  M 155.16 75.65
  Q 155.44 70.10 155.07 65.14
  C 154.02 50.88 142.68 50.43 131.73 53.54
  A 0.78 0.77 74.3 0 0 131.20 54.50
  C 132.55 59.38 131.20 64.69 126.72 67.08
  C 120.69 70.28 113.55 66.11 113.09 59.35
  C 112.45 50.12 122.43 44.90 129.89 43.14
  C 141.58 40.39 165.67 40.13 170.87 54.62
  Q 172.27 58.51 172.61 65.45
  Q 172.76 68.45 172.64 99.40
  C 172.61 107.93 175.27 109.32 182.94 110.83
  A 0.66 0.65 -81.5 0 1 183.47 111.55
  Q 182.80 118.10 176.72 120.19
  C 169.15 122.79 160.41 120.36 157.38 112.57
  A 0.43 0.42 -31.5 0 0 156.70 112.41
  Q 146.88 121.07 134.96 121.36
  C 120.88 121.71 107.58 112.78 107.22 97.76
  C 106.86 82.57 118.58 75.25 132.27 73.54
  Q 143.68 72.11 154.57 76.05
  A 0.45 0.44 -78.5 0 0 155.16 75.65
  Z
  M 155.20 100.22
  Q 155.38 92.15 155.09 90.03
  C 154.41 84.99 148.37 83.17 143.75 82.81
  C 137.23 82.30 130.14 84.19 127.68 90.92
  C 125.03 98.19 128.68 106.82 136.58 108.47
  Q 146.82 110.60 154.39 102.23
  A 3.10 3.08 67.2 0 0 155.20 100.22
  Z"
/>
<path fill="#204482" d="
  M 216.67 53.36
  A 0.36 0.36 0.0 0 0 217.34 53.48
  C 221.76 45.45 232.22 38.04 241.42 43.25
  C 248.01 46.97 248.45 56.62 242.73 61.15
  C 237.13 65.56 229.29 62.44 227.68 55.56
  A 0.71 0.71 0.0 0 0 226.64 55.10
  C 219.85 58.83 217.58 66.90 217.47 74.01
  Q 217.11 96.17 217.59 101.96
  C 218.15 108.74 222.18 109.24 227.46 110.92
  A 1.18 1.18 0.0 0 1 228.13 111.49
  C 230.42 116.01 226.80 118.57 222.69 119.16
  C 217.90 119.86 192.85 122.04 191.01 115.18
  Q 190.50 113.27 191.31 111.64
  A 1.52 1.49 2.4 0 1 192.12 110.91
  C 199.06 108.19 200.32 105.77 200.36 97.98
  Q 200.43 84.48 200.39 65.50
  C 200.37 58.61 197.91 55.67 190.75 57.01
  A 1.27 1.27 0.0 0 1 189.26 55.96
  Q 188.40 50.48 192.78 47.23
  C 201.49 40.76 214.23 39.48 216.67 53.36
  Z"
/>
<path fill="#204482" d="
  M 279.98 53.36
  A 0.36 0.36 0.0 0 0 280.65 53.48
  C 285.07 45.45 295.53 38.04 304.74 43.25
  C 311.33 46.97 311.76 56.63 306.04 61.16
  C 300.44 65.57 292.60 62.44 290.99 55.56
  A 0.72 0.71 68.7 0 0 289.95 55.10
  C 283.16 58.83 280.88 66.90 280.77 74.01
  Q 280.40 96.18 280.88 101.97
  C 281.44 108.75 285.47 109.26 290.75 110.94
  A 1.18 1.18 0.0 0 1 291.42 111.51
  C 293.71 116.03 290.09 118.59 285.98 119.18
  C 281.19 119.88 256.13 122.05 254.29 115.19
  Q 253.78 113.28 254.59 111.65
  A 1.52 1.49 2.5 0 1 255.40 110.92
  C 262.35 108.20 263.61 105.78 263.65 97.99
  Q 263.72 84.48 263.69 65.50
  C 263.67 58.60 261.21 55.66 254.05 57.00
  A 1.27 1.27 0.0 0 1 252.56 55.95
  Q 251.70 50.47 256.08 47.22
  C 264.79 40.75 277.54 39.47 279.98 53.36
  Z"
/>
<path fill="#204482" d="
  M 377.06 98.59
  A 1.36 1.36 0.0 0 1 379.25 99.15
  Q 381.45 105.35 378.13 110.16
  C 371.59 119.65 357.92 122.00 346.92 121.08
  Q 336.40 120.20 328.17 114.10
  Q 312.60 102.56 312.44 82.50
  C 312.32 68.07 319.13 52.69 332.80 46.08
  C 351.27 37.15 374.86 41.25 381.51 62.81
  C 383.26 68.46 382.91 75.45 380.43 80.74
  A 0.98 0.97 12.2 0 1 379.54 81.31
  L 332.44 81.31
  A 0.96 0.96 0.0 0 0 331.48 82.33
  C 332.26 94.66 339.41 103.89 352.02 106.25
  Q 365.74 108.82 377.06 98.59
  Z
  M 332.32 71.56
  L 361.66 71.56
  A 2.25 2.25 0.0 0 0 363.77 70.10
  Q 364.58 67.94 364.24 65.98
  Q 362.13 53.86 350.93 52.09
  C 339.04 50.21 332.38 60.29 331.65 70.84
  A 0.67 0.67 0.0 0 0 332.32 71.56
  Z"
/>
<path fill="#EA4335" d="
  M 528.51 83.25
  A 40.40 40.40 0.0 0 1 488.11 123.65
  A 40.40 40.40 0.0 0 1 447.71 83.25
  A 40.40 40.40 0.0 0 1 488.11 42.85
  A 40.40 40.40 0.0 0 1 528.51 83.25
  Z
  M 488.1400 58.9600
  A 24.28 22.67 -90.0 0 0 465.4700 83.2400
  A 24.28 22.67 -90.0 0 0 488.1400 107.5200
  A 24.28 22.67 -90.0 0 0 510.8100 83.2400
  A 24.28 22.67 -90.0 0 0 488.1400 58.9600
  Z"
/>
<path fill="#EA4335" d="
  M 796.16 96.80
  A 0.49 0.49 0.0 0 1 796.82 96.67
  L 809.98 105.41
  A 0.38 0.37 35.1 0 1 810.08 105.94
  Q 800.28 119.23 785.75 122.41
  C 760.65 127.92 738.08 110.62 737.25 84.77
  C 736.60 64.31 748.77 46.48 769.72 43.41
  C 778.85 42.07 788.46 44.43 795.93 50.36
  C 803.17 56.11 807.78 63.94 810.75 72.73
  A 0.61 0.60 -20.9 0 1 810.41 73.48
  L 758.17 95.06
  A 0.81 0.80 -25.1 0 0 757.76 96.18
  C 760.98 102.44 766.62 106.60 773.98 107.29
  Q 787.93 108.60 796.16 96.80
  Z
  M 789.80 66.18
  C 785.33 59.02 775.73 56.96 768.13 60.26
  Q 754.85 66.02 754.33 81.11
  A 0.55 0.55 0.0 0 0 755.09 81.64
  L 789.38 67.48
  A 0.90 0.90 0.0 0 0 789.80 66.18
  Z"
/>
<path fill="#FBBC05" d="
  M 616.10 83.23
  A 40.39 40.39 0.0 0 1 575.71 123.62
  A 40.39 40.39 0.0 0 1 535.32 83.23
  A 40.39 40.39 0.0 0 1 575.71 42.84
  A 40.39 40.39 0.0 0 1 616.10 83.23
  Z
  M 575.7100 58.9500
  A 24.29 22.68 -90.0 0 0 553.0300 83.2400
  A 24.29 22.68 -90.0 0 0 575.7100 107.5300
  A 24.29 22.68 -90.0 0 0 598.3900 83.2400
  A 24.29 22.68 -90.0 0 0 575.7100 58.9500
  Z"
/>
<path fill="#4285F4" d="
  M 683.23 114.62
  A 0.37 0.37 0.0 0 0 682.59 114.42
  C 668.12 130.69 641.92 122.92 630.72 107.00
  Q 622.50 95.32 623.12 81.48
  C 624.11 59.52 644.22 39.73 667.30 43.71
  Q 676.41 45.28 682.57 51.82
  A 0.41 0.41 0.0 0 0 683.28 51.54
  L 683.28 46.44
  A 0.77 0.76 -90.0 0 1 684.04 45.67
  L 699.33 45.67
  A 0.69 0.69 0.0 0 1 700.02 46.36
  Q 700.08 103.33 700.04 118.50
  C 699.96 142.78 686.27 159.83 661.01 159.37
  C 645.55 159.09 632.92 150.24 626.45 136.11
  A 0.46 0.46 0.0 0 1 626.70 135.49
  L 641.02 129.57
  A 0.76 0.75 66.1 0 1 641.99 129.95
  C 647.20 140.90 657.77 146.05 669.40 142.47
  Q 681.04 138.89 682.94 124.99
  Q 683.72 119.29 683.23 114.62
  Z
  M 662.7600 58.9300
  A 24.36 21.95 -90.0 0 0 640.8100 83.2900
  A 24.36 21.95 -90.0 0 0 662.7600 107.6500
  A 24.36 21.95 -90.0 0 0 684.7100 83.2900
  A 24.36 21.95 -90.0 0 0 662.7600 58.9300
  Z"
/>
<path fill="#ffffff" d="
  M 331.65 70.84
  C 332.38 60.29 339.04 50.21 350.93 52.09
  Q 362.13 53.86 364.24 65.98
  Q 364.58 67.94 363.77 70.10
  A 2.25 2.25 0.0 0 1 361.66 71.56
  L 332.32 71.56
  A 0.67 0.67 0.0 0 1 331.65 70.84
  Z"
/>
<path fill="#ffffff" d="
  M 789.80 66.18
  A 0.90 0.90 0.0 0 1 789.38 67.48
  L 755.09 81.64
  A 0.55 0.55 0.0 0 1 754.33 81.11
  Q 754.85 66.02 768.13 60.26
  C 775.73 56.96 785.33 59.02 789.80 66.18
  Z"
/>
<ellipse fill="#ffffff" cx="0.00" cy="0.00" transform="translate(488.14,83.24) rotate(-90.0)" rx="24.28" ry="22.67"/>
<ellipse fill="#ffffff" cx="0.00" cy="0.00" transform="translate(575.71,83.24) rotate(-90.0)" rx="24.29" ry="22.68"/>
<ellipse fill="#ffffff" cx="0.00" cy="0.00" transform="translate(662.76,83.29) rotate(-90.0)" rx="24.36" ry="21.95"/>
<path fill="#ffffff" d="
  M 154.39 102.23
  Q 146.82 110.60 136.58 108.47
  C 128.68 106.82 125.03 98.19 127.68 90.92
  C 130.14 84.19 137.23 82.30 143.75 82.81
  C 148.37 83.17 154.41 84.99 155.09 90.03
  Q 155.38 92.15 155.20 100.22
  A 3.10 3.08 67.2 0 1 154.39 102.23
  Z"
/>
</svg>
